#Comment line ignore any data following # character 
#Hierarchical Translation and Rotation (.htr) file 
[Header]	
#Header keywords are followed by a single value 
FileType HTR		#Single word string
DataType HTRS		#Translation followed by rotation and scale data
FileVersion 1		#integer
NumSegments 84		#integer
NumFrames 2		#integer
DataFrameRate 30		#integer, data frame rate in this file
EulerRotationOrder ZYX
CalibrationUnits mm
RotationUnits Degrees
GlobalAxisofGravity Y
BoneLengthAxis Y
ScaleFactor 1.00
[SegmentNames&Hierarchy]
#CHILD	PARENT
MASTER GLOBAL
root MASTER
chest root
L_mid_tent01 root
R_mid_tent01 root
spine01 root
Bip01_Neck chest
L_humerus chest
R_humerus chest
weapon_bone chest
Bip01_Head Bip01_Neck
eye_left_bone Bip01_Head
eye_right_bone Bip01_Head
L_forearm L_humerus
L_front_hand L_forearm
L_weapon_bone L_forearm
L_front_hand01_01 L_front_hand
L_front_hand02_01 L_front_hand
L_front_hand03_01 L_front_hand
L_front_hand01_02 L_front_hand01_01
L_front_hand02_02 L_front_hand02_01
L_front_hand03_02 L_front_hand03_01
R_forearm R_humerus
R_front_hand R_forearm
R_weapon_bone R_forearm
R_front_hand01_01 R_front_hand
R_front_hand02_01 R_front_hand
R_front_hand03_01 R_front_hand
R_front_hand01_02 R_front_hand01_01
R_front_hand02_02 R_front_hand02_01
R_front_hand03_02 R_front_hand03_01
null_rope01_connect L_mid_tent01
Rope1_Seg01 null_rope01_connect
Rope1_Seg02 Rope1_Seg01
Rope1_Seg03 Rope1_Seg02
Rope1_Seg04 Rope1_Seg03
Rope1_Seg05 Rope1_Seg04
Rope1_Seg06 Rope1_Seg05
Rope1_Seg07 Rope1_Seg06
Rope1_Seg09 Rope1_Seg07
L_mid_hand01 Rope1_Seg09
L_mid_hand02 Rope1_Seg09
L_mid_hand03 Rope1_Seg09
null_rope02_connect R_mid_tent01
Rope2_Seg01 null_rope02_connect
Rope2_Seg02 Rope2_Seg01
Rope2_Seg03 Rope2_Seg02
Rope2_Seg04 Rope2_Seg03
Rope2_Seg05 Rope2_Seg04
Rope2_Seg06 Rope2_Seg05
Rope2_Seg07 Rope2_Seg06
Rope2_Seg09 Rope2_Seg07
R_mid_hand01 Rope2_Seg09
R_mid_hand02 Rope2_Seg09
R_mid_hand03 Rope2_Seg09
spine02 spine01
spine03 spine02
pelvis spine03
null_rope03_connect pelvis
null_rope04_connect pelvis
Rope3_Seg01 null_rope03_connect
Rope3_Seg02 Rope3_Seg01
Rope3_Seg03 Rope3_Seg02
Rope3_Seg04 Rope3_Seg03
Rope3_Seg05 Rope3_Seg04
Rope3_Seg06 Rope3_Seg05
Rope3_Seg07 Rope3_Seg06
Rope3_Seg08 Rope3_Seg07
Rope3_Seg09 Rope3_Seg08
R_rear_hand01 Rope3_Seg09
R_rear_hand02 Rope3_Seg09
R_rear_hand03 Rope3_Seg09
Rope4_Seg01 null_rope04_connect
Rope4_Seg02 Rope4_Seg01
Rope4_Seg03 Rope4_Seg02
Rope4_Seg04 Rope4_Seg03
Rope4_Seg05 Rope4_Seg04
Rope4_Seg06 Rope4_Seg05
Rope4_Seg07 Rope4_Seg06
Rope4_Seg08 Rope4_Seg07
Rope4_Seg09 Rope4_Seg08
L_rear_hand01 Rope4_Seg09
L_rear_hand02 Rope4_Seg09
L_rear_hand03 Rope4_Seg09
[BasePosition]
#SegmentName Tx, Ty, Tz, Rx, Ry, Rz, BoneLength
MASTER 0.000000 0.000000 0.000000 -90.000000 0.000000 0.000000 10.000000 
root 0.000000 0.000000 0.000000 0.000000 0.000000 0.000000 10.000000 
chest 0.000000 0.000000 0.000000 0.000000 0.000000 0.000000 10.000000 
L_mid_tent01 0.000000 0.000000 0.000000 0.000000 0.000000 0.000000 10.000000 
R_mid_tent01 0.000000 0.000000 0.000000 0.000000 0.000000 0.000000 10.000000 
spine01 0.000000 0.000000 0.000000 0.000000 0.000000 0.000000 10.000000 
Bip01_Neck 0.000000 0.000000 0.000000 0.000000 0.000000 0.000000 10.000000 
L_humerus 0.000000 0.000000 0.000000 0.000000 0.000000 0.000000 10.000000 
R_humerus 0.000000 0.000000 0.000000 0.000000 0.000000 0.000000 10.000000 
weapon_bone 0.000000 0.000000 0.000000 0.000000 0.000000 0.000000 10.000000 
Bip01_Head 0.000000 0.000000 0.000000 0.000000 0.000000 0.000000 10.000000 
eye_left_bone 0.000000 0.000000 0.000000 0.000000 0.000000 0.000000 10.000000 
eye_right_bone 0.000000 0.000000 0.000000 0.000000 0.000000 0.000000 10.000000 
L_forearm 0.000000 0.000000 0.000000 0.000000 0.000000 0.000000 10.000000 
L_front_hand 0.000000 0.000000 0.000000 0.000000 0.000000 0.000000 10.000000 
L_weapon_bone 0.000000 0.000000 0.000000 0.000000 0.000000 0.000000 10.000000 
L_front_hand01_01 0.000000 0.000000 0.000000 0.000000 0.000000 0.000000 10.000000 
L_front_hand02_01 0.000000 0.000000 0.000000 0.000000 0.000000 0.000000 10.000000 
L_front_hand03_01 0.000000 0.000000 0.000000 0.000000 0.000000 0.000000 10.000000 
L_front_hand01_02 0.000000 0.000000 0.000000 0.000000 0.000000 0.000000 10.000000 
L_front_hand02_02 0.000000 0.000000 0.000000 0.000000 0.000000 0.000000 10.000000 
L_front_hand03_02 0.000000 0.000000 0.000000 0.000000 0.000000 0.000000 10.000000 
R_forearm 0.000000 0.000000 0.000000 0.000000 0.000000 0.000000 10.000000 
R_front_hand 0.000000 0.000000 0.000000 0.000000 0.000000 0.000000 10.000000 
R_weapon_bone 0.000000 0.000000 0.000000 0.000000 0.000000 0.000000 10.000000 
R_front_hand01_01 0.000000 0.000000 0.000000 0.000000 0.000000 0.000000 10.000000 
R_front_hand02_01 0.000000 0.000000 0.000000 0.000000 0.000000 0.000000 10.000000 
R_front_hand03_01 0.000000 0.000000 0.000000 0.000000 0.000000 0.000000 10.000000 
R_front_hand01_02 0.000000 0.000000 0.000000 0.000000 0.000000 0.000000 10.000000 
R_front_hand02_02 0.000000 0.000000 0.000000 0.000000 0.000000 0.000000 10.000000 
R_front_hand03_02 0.000000 0.000000 0.000000 0.000000 0.000000 0.000000 10.000000 
null_rope01_connect 0.000000 0.000000 0.000000 0.000000 0.000000 0.000000 10.000000 
Rope1_Seg01 0.000000 0.000000 0.000000 0.000000 0.000000 0.000000 10.000000 
Rope1_Seg02 0.000000 0.000000 0.000000 0.000000 0.000000 0.000000 10.000000 
Rope1_Seg03 0.000000 0.000000 0.000000 0.000000 0.000000 0.000000 10.000000 
Rope1_Seg04 0.000000 0.000000 0.000000 0.000000 0.000000 0.000000 10.000000 
Rope1_Seg05 0.000000 0.000000 0.000000 0.000000 0.000000 0.000000 10.000000 
Rope1_Seg06 0.000000 0.000000 0.000000 0.000000 0.000000 0.000000 10.000000 
Rope1_Seg07 0.000000 0.000000 0.000000 0.000000 0.000000 0.000000 10.000000 
Rope1_Seg09 0.000000 0.000000 0.000000 0.000000 0.000000 0.000000 10.000000 
L_mid_hand01 0.000000 0.000000 0.000000 0.000000 0.000000 0.000000 10.000000 
L_mid_hand02 0.000000 0.000000 0.000000 0.000000 0.000000 0.000000 10.000000 
L_mid_hand03 0.000000 0.000000 0.000000 0.000000 0.000000 0.000000 10.000000 
null_rope02_connect 0.000000 0.000000 0.000000 0.000000 0.000000 0.000000 10.000000 
Rope2_Seg01 0.000000 0.000000 0.000000 0.000000 0.000000 0.000000 10.000000 
Rope2_Seg02 0.000000 0.000000 0.000000 0.000000 0.000000 0.000000 10.000000 
Rope2_Seg03 0.000000 0.000000 0.000000 0.000000 0.000000 0.000000 10.000000 
Rope2_Seg04 0.000000 0.000000 0.000000 0.000000 0.000000 0.000000 10.000000 
Rope2_Seg05 0.000000 0.000000 0.000000 0.000000 0.000000 0.000000 10.000000 
Rope2_Seg06 0.000000 0.000000 0.000000 0.000000 0.000000 0.000000 10.000000 
Rope2_Seg07 0.000000 0.000000 0.000000 0.000000 0.000000 0.000000 10.000000 
Rope2_Seg09 0.000000 0.000000 0.000000 0.000000 0.000000 0.000000 10.000000 
R_mid_hand01 0.000000 0.000000 0.000000 0.000000 0.000000 0.000000 10.000000 
R_mid_hand02 0.000000 0.000000 0.000000 0.000000 0.000000 0.000000 10.000000 
R_mid_hand03 0.000000 0.000000 0.000000 0.000000 0.000000 0.000000 10.000000 
spine02 0.000000 0.000000 0.000000 0.000000 0.000000 0.000000 10.000000 
spine03 0.000000 0.000000 0.000000 0.000000 0.000000 0.000000 10.000000 
pelvis 0.000000 0.000000 0.000000 0.000000 0.000000 0.000000 10.000000 
null_rope03_connect 0.000000 0.000000 0.000000 0.000000 0.000000 0.000000 10.000000 
null_rope04_connect 0.000000 0.000000 0.000000 0.000000 0.000000 0.000000 10.000000 
Rope3_Seg01 0.000000 0.000000 0.000000 0.000000 0.000000 0.000000 10.000000 
Rope3_Seg02 0.000000 0.000000 0.000000 0.000000 0.000000 0.000000 10.000000 
Rope3_Seg03 0.000000 0.000000 0.000000 0.000000 0.000000 0.000000 10.000000 
Rope3_Seg04 0.000000 0.000000 0.000000 0.000000 0.000000 0.000000 10.000000 
Rope3_Seg05 0.000000 0.000000 0.000000 0.000000 0.000000 0.000000 10.000000 
Rope3_Seg06 0.000000 0.000000 0.000000 0.000000 0.000000 0.000000 10.000000 
Rope3_Seg07 0.000000 0.000000 0.000000 0.000000 0.000000 0.000000 10.000000 
Rope3_Seg08 0.000000 0.000000 0.000000 0.000000 0.000000 0.000000 10.000000 
Rope3_Seg09 0.000000 0.000000 0.000000 0.000000 0.000000 0.000000 10.000000 
R_rear_hand01 0.000000 0.000000 0.000000 0.000000 0.000000 0.000000 10.000000 
R_rear_hand02 0.000000 0.000000 0.000000 0.000000 0.000000 0.000000 10.000000 
R_rear_hand03 0.000000 0.000000 0.000000 0.000000 0.000000 0.000000 10.000000 
Rope4_Seg01 0.000000 0.000000 0.000000 0.000000 0.000000 0.000000 10.000000 
Rope4_Seg02 0.000000 0.000000 0.000000 0.000000 0.000000 0.000000 10.000000 
Rope4_Seg03 0.000000 0.000000 0.000000 0.000000 0.000000 0.000000 10.000000 
Rope4_Seg04 0.000000 0.000000 0.000000 0.000000 0.000000 0.000000 10.000000 
Rope4_Seg05 0.000000 0.000000 0.000000 0.000000 0.000000 0.000000 10.000000 
Rope4_Seg06 0.000000 0.000000 0.000000 0.000000 0.000000 0.000000 10.000000 
Rope4_Seg07 0.000000 0.000000 0.000000 0.000000 0.000000 0.000000 10.000000 
Rope4_Seg08 0.000000 0.000000 0.000000 0.000000 0.000000 0.000000 10.000000 
Rope4_Seg09 0.000000 0.000000 0.000000 0.000000 0.000000 0.000000 10.000000 
L_rear_hand01 0.000000 0.000000 0.000000 0.000000 0.000000 0.000000 10.000000 
L_rear_hand02 0.000000 0.000000 0.000000 0.000000 0.000000 0.000000 10.000000 
L_rear_hand03 0.000000 0.000000 0.000000 0.000000 0.000000 0.000000 10.000000 
#Beginning of Data. Separated by tabs
#Fr	Tx	Ty	Tz	Rx	Ry	Rz	SF
[MASTER]
20 0.000000 0.000000 0.000000 0.001660 0.001660 0.001660 0.000000
21 0.000000 0.000000 0.000000 0.001660 0.001660 0.001660 0.000000
[root]
20 -22.295595 -75.732254 1498.311646 -109.353821 20.960396 -89.681953 1500.390015
21 -19.254021 -73.895958 1497.948730 -109.728455 20.765226 -89.614761 1499.893921
[chest]
20 -86.836609 -33.005978 -30.127247 5.471416 -9.410115 -178.047623 97.660851
21 -86.836609 -33.005978 -30.127245 5.584796 -9.508103 -177.629120 97.660851
[L_mid_tent01]
20 27.299513 22.177580 -249.918289 -9.048286 20.588947 67.370758 252.381180
21 27.299513 22.177580 -249.918289 -8.830800 20.524340 67.910896 252.381180
[R_mid_tent01]
20 23.228794 24.509907 226.238495 -176.026871 -17.074194 65.547813 228.744751
21 23.228794 24.509907 226.238495 -176.023788 -17.381666 65.524994 228.744751
[spine01]
20 -0.361383 -0.195265 0.000000 -0.000001 -0.000007 22.052340 0.410763
21 -0.361383 -0.195265 0.000000 -0.000001 -0.000007 22.052340 0.410763
[Bip01_Neck]
20 165.484543 71.581718 0.000119 175.896118 1.177290 24.871183 180.302734
21 165.484543 71.581718 0.000119 175.896118 1.177290 24.871183 180.302734
[L_humerus]
20 -13.983130 -135.272980 -120.471481 -168.517593 36.033752 -113.483025 181.680161
21 -13.983130 -135.272980 -120.471481 -168.517593 36.033749 -113.483025 181.680161
[R_humerus]
20 -13.983309 -135.273102 125.287651 -179.578995 -31.759901 -122.052856 184.909012
21 -13.983309 -135.273102 125.287651 -179.581497 -30.913717 -122.051300 184.909012
[weapon_bone]
20 235.964890 -300.705902 0.000000 0.000000 -89.951546 -128.212341 382.234833
21 235.964890 -300.705902 0.000000 0.000000 -89.951546 -128.212341 382.234833
[Bip01_Head]
20 189.519958 179.130234 22.124886 -23.626308 5.787232 14.654977 261.715424
21 189.519958 179.130234 22.124886 -23.626308 5.787232 14.654977 261.715424
[eye_left_bone]
20 -24.626970 125.451866 -64.772606 0.000000 -90.000000 -99.840431 143.318359
21 -24.626970 125.451866 -64.772606 0.000000 -90.000000 -99.840431 143.318359
[eye_right_bone]
20 -24.626970 125.451866 64.327362 0.000000 -89.965736 80.156380 143.117676
21 -24.626970 125.451866 64.327362 0.000000 -89.965736 80.156380 143.117676
[L_forearm]
20 322.776093 0.000000 -0.000119 0.000017 0.002347 -89.149834 322.776093
21 322.776093 0.000000 -0.000119 0.000017 0.002347 -89.149834 322.776093
[L_front_hand]
20 241.149185 -0.042021 -3.300071 65.696762 -2.244329 -0.022350 241.171753
21 241.149185 -0.042021 -3.300071 66.783394 -2.242519 -0.018943 241.171753
[L_weapon_bone]
20 156.183838 0.000000 0.000000 0.000014 0.000007 0.000001 156.183838
21 156.183838 0.000000 0.000000 0.000014 0.000007 0.000001 156.183838
[L_front_hand01_01]
20 86.095154 20.947098 -0.655860 -0.366594 -0.477154 75.385574 88.609184
21 86.095154 20.947098 -0.655860 -0.366594 -0.477154 75.385574 88.609184
[L_front_hand02_01]
20 86.935165 -11.437475 24.513514 154.399796 -59.883835 -61.369587 91.046425
21 86.935165 -11.437475 24.513514 154.399796 -59.883835 -61.369587 91.046425
[L_front_hand03_01]
20 86.637497 -14.123976 -20.424902 -153.913849 58.118130 -62.702866 90.126129
21 86.637497 -14.123976 -20.424902 -153.913849 58.118122 -62.702866 90.126129
[L_front_hand01_02]
20 71.020905 -0.000179 0.000030 0.000334 -0.002323 -106.379684 71.020905
21 71.020905 -0.000179 0.000030 0.000334 -0.002323 -106.379684 71.020905
[L_front_hand02_02]
20 71.020927 -0.000119 0.000060 0.000334 -0.002323 -106.379684 71.020927
21 71.020927 -0.000119 0.000060 0.000334 -0.002323 -106.379684 71.020927
[L_front_hand03_02]
20 71.020905 -0.000060 0.000060 0.000334 -0.002323 -106.379684 71.020905
21 71.020905 -0.000060 0.000060 0.000334 -0.002323 -106.379684 71.020905
[R_forearm]
20 322.776428 -0.000060 0.000030 0.213197 0.007525 -93.425262 322.776428
21 322.776428 -0.000060 0.000030 0.213197 0.007525 -93.425262 322.776428
[R_front_hand]
20 238.847015 -0.006795 2.210259 -0.270529 1.703932 2.322530 238.857239
21 238.847015 -0.006795 2.210259 -0.270529 1.703932 2.322530 238.857239
[R_weapon_bone]
20 155.664093 0.002503 -0.000030 0.003487 0.001180 -90.988930 155.664078
21 155.664093 0.002503 -0.000030 0.003487 0.001180 -90.988930 155.664078
[R_front_hand01_01]
20 87.624611 14.231146 22.918642 -154.633499 -59.950619 61.746044 91.683487
21 87.624611 14.231146 22.918642 -154.633484 -59.950619 61.746037 91.683487
[R_front_hand02_01]
20 89.356956 14.367283 -19.491137 154.602661 58.302849 63.744389 92.579636
21 89.356956 14.367283 -19.491137 154.602661 58.302849 63.744389 92.579636
[R_front_hand03_01]
20 87.286232 -22.307278 -0.143439 0.162155 -0.423168 -75.767921 90.091743
21 87.286232 -22.307278 -0.143439 0.162155 -0.423168 -75.767921 90.091743
[R_front_hand01_02]
20 71.020905 0.000060 0.000119 0.002323 -0.000334 106.381714 71.020905
21 71.020905 0.000060 0.000119 0.002323 -0.000334 106.381714 71.020905
[R_front_hand02_02]
20 71.020844 -0.000030 -0.000119 0.002323 -0.000334 106.381714 71.020836
21 71.020844 -0.000030 -0.000119 0.002323 -0.000334 106.381714 71.020836
[R_front_hand03_02]
20 71.020905 0.000000 0.000030 0.002323 -0.000334 106.381714 71.020905
21 71.020905 0.000000 0.000030 0.002323 -0.000334 106.381714 71.020905
[null_rope01_connect]
20 328.732483 0.000000 -0.000238 157.715683 -48.119183 -157.703217 328.732483
21 328.732483 0.000000 -0.000238 157.808578 -47.867939 -158.077194 328.732483
[Rope1_Seg01]
20 0.000000 0.000000 0.000000 164.552124 60.377335 -167.461807 0.000000
21 0.000000 0.000000 0.000000 165.827316 60.018642 -165.998642 0.000000
[Rope1_Seg02]
20 139.999863 -0.000179 0.000000 11.497538 -6.332242 -10.170757 139.999863
21 139.999863 -0.000179 0.000000 11.607104 -6.217618 -10.020733 139.999863
[Rope1_Seg03]
20 139.999924 0.000060 -0.000060 16.791824 -11.478358 -11.859593 139.999924
21 139.999924 0.000060 -0.000060 16.984514 -11.335595 -11.707812 139.999924
[Rope1_Seg04]
20 139.999924 -0.000060 -0.000119 18.704012 -21.308855 -10.464289 139.999924
21 139.999924 -0.000060 -0.000119 18.963598 -21.167559 -10.342846 139.999924
[Rope1_Seg05]
20 139.999832 0.000119 -0.000060 2.081219 0.226960 -4.768981 139.999832
21 139.999832 0.000119 -0.000060 2.295587 -0.046112 -4.779140 139.999832
[Rope1_Seg06]
20 139.999954 0.000119 -0.000060 -6.314474 12.182067 -4.952704 139.999954
21 139.999954 0.000119 -0.000060 -5.734999 11.387722 -4.925992 139.999954
[Rope1_Seg07]
20 139.999985 0.000060 0.000000 -1.943915 4.035936 -2.254637 139.999985
21 139.999985 0.000060 0.000000 -1.474995 3.569407 -2.281165 139.999985
[Rope1_Seg09]
20 121.602913 0.000119 -0.000089 -89.793175 -1.359789 0.847147 121.602913
21 121.602913 0.000119 -0.000089 -89.793175 -1.359789 0.847147 121.602913
[L_mid_hand01]
20 103.859421 1.038730 8.195221 106.855484 -31.239275 -9.461397 104.187431
21 103.859421 1.038730 8.195221 106.855484 -31.239275 -9.461397 104.187431
[L_mid_hand02]
20 105.572853 -4.139662 -10.864139 -142.331345 25.752670 -28.774628 106.211075
21 105.572853 -4.139662 -10.864139 -142.331345 25.752670 -28.774628 106.211075
[L_mid_hand03]
20 104.641464 17.579376 -3.913581 -16.122810 9.734291 34.223598 106.179977
21 104.641464 17.579376 -3.913581 -16.122810 9.734291 34.223598 106.179977
[null_rope02_connect]
20 328.732849 0.000179 -0.000119 -79.022804 85.722359 98.647453 328.732849
21 328.732849 0.000179 -0.000119 -78.943329 85.502251 98.551559 328.732849
[Rope2_Seg01]
20 0.000076 0.000110 0.000153 41.773190 86.141922 155.328674 0.000203
21 0.000076 0.000110 0.000153 42.220161 85.935913 155.804428 0.000203
[Rope2_Seg02]
20 139.999741 -0.000060 -0.000119 -2.917597 11.075644 6.019498 139.999756
21 139.999741 -0.000060 -0.000119 -2.872497 11.004717 6.060069 139.999756
[Rope2_Seg03]
20 140.000107 0.000030 0.000000 -4.941990 11.287945 7.333766 140.000107
21 140.000107 0.000030 0.000000 -4.828641 11.120136 7.320768 140.000107
[Rope2_Seg04]
20 139.999802 0.000000 -0.000060 -6.434172 9.767125 7.748573 139.999802
21 139.999802 0.000000 -0.000060 -6.262207 9.608361 7.718050 139.999802
[Rope2_Seg05]
20 139.999985 -0.000060 0.000119 -5.026844 6.437281 4.767937 139.999985
21 139.999985 -0.000060 0.000119 -5.116870 6.706498 4.920431 139.999985
[Rope2_Seg06]
20 139.999893 -0.000030 -0.000119 -3.692761 4.002907 3.170584 139.999893
21 139.999893 -0.000030 -0.000119 -3.846826 4.252599 3.315719 139.999893
[Rope2_Seg07]
20 139.999893 0.000060 -0.000060 -3.069607 2.622424 2.683163 139.999893
21 139.999893 0.000060 -0.000060 -3.173392 2.741699 2.786527 139.999893
[Rope2_Seg09]
20 121.338966 0.000089 -0.000060 33.793236 -1.359788 -0.847141 121.338966
21 121.338966 0.000089 -0.000060 33.793236 -1.359788 -0.847141 121.338966
[R_mid_hand01]
20 104.680779 11.144459 -10.335981 -41.523792 25.424656 28.595957 105.778534
21 104.680779 11.144459 -10.335981 -41.523792 25.424656 28.595957 105.778534
[R_mid_hand02]
20 104.070427 2.443552 8.231699 72.847389 -32.746803 10.013901 104.424065
21 104.070427 2.443552 8.231699 72.847389 -32.746803 10.013901 104.424065
[R_mid_hand03]
20 106.028137 -11.221827 -5.996406 -167.901306 10.259192 -37.009720 106.788818
21 106.028137 -11.221827 -5.996406 -167.901306 10.259192 -37.009720 106.788818
[spine02]
20 129.756927 0.001550 0.000119 -0.245322 -4.052060 -4.355547 129.756927
21 129.756927 0.001550 0.000119 -0.245322 -4.052059 -4.355546 129.756927
[spine03]
20 78.613846 0.087372 -4.898873 0.207412 -2.089717 -0.432471 78.766380
21 78.613846 0.087372 -4.898873 0.207412 -2.089717 -0.432471 78.766380
[pelvis]
20 169.435242 0.051022 0.000000 -0.010007 -0.191417 -1.897554 169.435257
21 169.435242 0.051022 0.000000 -0.010007 -0.191417 -1.897554 169.435257
[null_rope03_connect]
20 -1.257226 -2.466202 137.391083 138.881760 -71.318314 -86.204346 137.418976
21 -1.257226 -2.466202 137.391083 139.308044 -70.922295 -86.443642 137.418976
[null_rope04_connect]
20 -1.259640 -2.480268 -137.844437 138.881760 -71.318314 -86.204346 137.872513
21 -1.259640 -2.480268 -137.844437 139.308044 -70.922295 -86.443642 137.872513
[Rope3_Seg01]
20 0.000000 0.000000 0.000000 -163.719757 71.765045 -100.684746 0.000000
21 0.000000 0.000000 0.000000 -164.770050 72.513054 -101.449867 0.000000
[Rope3_Seg02]
20 139.999924 -0.000119 0.000060 4.400296 10.070304 -5.834037 139.999924
21 139.999924 -0.000119 0.000060 4.294337 9.790951 -5.832508 139.999924
[Rope3_Seg03]
20 139.999924 -0.000119 0.000119 7.413010 17.712324 -7.225226 139.999924
21 139.999924 -0.000119 0.000119 7.186308 17.368200 -7.554359 139.999924
[Rope3_Seg04]
20 139.999924 0.000119 0.000000 1.848745 1.195676 -6.740023 139.999924
21 139.999924 0.000119 0.000000 2.200691 2.376418 -6.997645 139.999924
[Rope3_Seg05]
20 139.999924 -0.000238 0.000060 -4.617357 -23.075731 0.515387 139.999924
21 139.999924 -0.000238 0.000060 -4.958517 -23.112490 1.364820 139.999924
[Rope3_Seg06]
20 139.999893 -0.000119 -0.000060 0.018310 -9.063575 -1.086302 139.999893
21 139.999893 -0.000119 -0.000060 -0.101123 -9.302360 -0.749302 139.999893
[Rope3_Seg07]
20 139.999771 0.000060 -0.000119 0.585038 -4.966507 -0.781126 139.999771
21 139.999771 0.000060 -0.000119 0.531240 -5.002223 -0.620551 139.999771
[Rope3_Seg08]
20 139.999985 -0.000060 0.000000 0.670717 -2.927346 -0.432707 139.999985
21 139.999985 -0.000060 0.000000 0.648474 -2.929610 -0.336502 139.999985
[Rope3_Seg09]
20 90.185997 -0.000179 -0.000060 89.793228 -1.359877 -0.847183 90.185997
21 90.185997 -0.000179 -0.000060 89.793228 -1.359877 -0.847183 90.185997
[R_rear_hand01]
20 103.366196 -6.073594 -10.757982 -161.551193 16.666374 -30.088671 104.101845
21 103.366196 -6.073594 -10.757982 -161.551193 16.666374 -30.088671 104.101845
[R_rear_hand02]
20 100.509819 12.039542 -7.992327 -34.280552 19.289745 28.875523 101.543350
21 100.509819 12.039542 -7.992327 -34.280552 19.289745 28.875523 101.543350
[R_rear_hand03]
20 101.539970 5.215704 5.435467 83.366440 -30.933914 7.284830 101.819031
21 101.539970 5.215704 5.435467 83.366440 -30.933914 7.284830 101.819031
[Rope4_Seg01]
20 0.000010 0.000038 -0.000114 1.680650 72.440796 -162.110519 0.000121
21 0.000010 0.000038 -0.000114 2.763561 72.225533 -160.969208 0.000121
[Rope4_Seg02]
20 139.999985 0.000060 0.000119 -0.453573 -1.278705 9.636477 139.999985
21 139.999985 0.000060 0.000119 -0.440005 -1.064921 9.584026 139.999985
[Rope4_Seg03]
20 139.999924 0.000000 -0.000238 -1.505927 -2.262443 12.888659 139.999924
21 139.999924 0.000000 -0.000238 -1.513647 -1.968637 12.817081 139.999924
[Rope4_Seg04]
20 139.999985 0.000000 0.000119 -2.663757 -2.838660 14.142050 139.999985
21 139.999985 0.000000 0.000119 -2.660781 -2.425621 13.876969 139.999985
[Rope4_Seg05]
20 139.999802 -0.000060 -0.000119 0.522401 3.727687 -0.268342 139.999802
21 139.999802 -0.000060 -0.000119 0.529325 3.562073 -0.296085 139.999802
[Rope4_Seg06]
20 139.999924 0.000000 0.000060 1.034944 3.769867 -1.988363 139.999924
21 139.999924 0.000000 0.000060 0.964724 3.429644 -1.716198 139.999924
[Rope4_Seg07]
20 139.999802 0.000000 0.000000 0.466343 2.199417 -0.015767 139.999802
21 139.999802 0.000000 0.000000 0.418766 2.037434 0.089903 139.999802
[Rope4_Seg08]
20 139.999924 0.000000 0.000119 -1.212885 1.430859 -0.020905 139.999924
21 139.999924 0.000000 0.000119 -1.254061 1.298100 0.051753 139.999924
[Rope4_Seg09]
20 90.185791 0.000060 0.000060 -135.617828 2.228885 0.850567 90.185791
21 90.185791 0.000060 0.000060 -135.617828 2.228885 0.850567 90.185791
[L_rear_hand01]
20 101.696655 -8.392275 -7.654577 -34.454281 -18.946800 151.655121 102.329041
21 101.696655 -8.392275 -7.654577 -34.454281 -18.946800 151.655121 102.329041
[L_rear_hand02]
20 102.726799 -1.568258 5.773216 83.407906 30.330435 172.796509 102.900848
21 102.726799 -1.568258 5.773216 83.407906 30.330435 172.796509 102.900848
[L_rear_hand03]
20 104.552910 9.721220 -10.420293 -161.379868 -16.473232 -150.512238 105.519653
21 104.552910 9.721220 -10.420293 -161.379868 -16.473232 -150.512238 105.519653
